<svg xmlns="http://www.w3.org/2000/svg" version="1.1" xmlns:xlink="http://www.w3.org/1999/xlink" xmlns:svgjs="http://svgjs.dev/svgjs" width="1500" height="1500" viewBox="0 0 1500 1500"><rect width="1500" height="1500" fill="#ffffff"></rect><g transform="matrix(0.6666666666666666,0,0,0.6666666666666666,249.39393939393938,435.99032258064517)"><svg viewBox="0 0 396 248" data-background-color="#0a192f" preserveAspectRatio="xMidYMid meet" height="939" width="1500" xmlns="http://www.w3.org/2000/svg" xmlns:xlink="http://www.w3.org/1999/xlink"><g id="tight-bounds" transform="matrix(1,0,0,1,0.2400000000000091,0.4000000000000057)"><svg viewBox="0 0 395.52 247.2" height="247.2" width="395.52"><g><svg></svg></g><g><svg viewBox="0 0 395.52 247.2" height="247.2" width="395.52"><g><path d="M55.039 247.2l26.403-45.732 4.644 0-23.954 41.49h271.256l-23.954-41.49 4.644 0 26.403 45.732zM197.76 0l26.403 45.732-4.643 0-21.76-37.689-21.76 37.689-4.643 0z" fill="#000000" fill-rule="nonzero" stroke="none" stroke-width="1" stroke-linecap="butt" stroke-linejoin="miter" stroke-miterlimit="10" stroke-dasharray="" stroke-dashoffset="0" font-family="none" font-weight="none" font-size="none" text-anchor="none" style="mix-blend-mode: normal" data-fill-palette-color="tertiary"></path></g><g transform="matrix(1,0,0,1,27.87627266807337,67.97999999999999)"><svg viewBox="0 0 339.76745466385324 111.24" height="111.24" width="339.76745466385324"><g><svg viewBox="0 0 554.8982858544068 181.67391982705735" height="111.24" width="339.76745466385324"><g transform="matrix(1,0,0,1,234.19610830705733,35.216959913528676)"><svg viewBox="0 0 320.70217754734944 111.24" height="111.24" width="320.70217754734944"><g id="textblocktransform"><svg viewBox="0 0 320.70217754734944 111.24" height="111.24" width="320.70217754734944" id="textblock"><g><svg viewBox="0 0 320.70217754734944 111.24" height="111.24" width="320.70217754734944"><g transform="matrix(1,0,0,1,0,0)"><svg width="320.70217754734944" viewBox="1.710588348457 -35.18 102.32941165154301 35.5" height="111.24" data-palette-color="#64ffda"><g class="wordmark-text-0" data-fill-palette-color="primary" id="text-0"><path d="M10.62 0.32L10.62 0.32Q6.03 0.32 3.98-1.14 1.93-2.59 1.81-5.93L1.81-5.93Q1.68-7.79 1.72-9.3 1.76-10.82 1.88-12.7L1.88-12.7 5.18-12.7Q5.03-10.82 5.04-8.96 5.05-7.1 5.18-5.37L5.18-5.37Q5.3-3.96 6.52-3.28 7.74-2.61 10.55-2.61L10.55-2.61Q13.31-2.61 14.47-3.28 15.63-3.96 15.77-5.37L15.77-5.37Q15.89-7.1 15.88-8.39 15.87-9.67 15.77-11.57L15.77-11.57Q15.67-13.09 14.98-14.11 14.28-15.14 11.89-15.45L11.89-15.45 8.4-16.09Q5.64-16.55 4.26-17.44 2.88-18.33 2.38-19.74 1.88-21.14 1.78-23.17L1.78-23.17Q1.71-24.51 1.73-26.04 1.76-27.56 1.83-29L1.83-29Q1.88-32.32 3.87-33.75 5.86-35.18 10.55-35.18L10.55-35.18Q14.87-35.18 16.83-33.74 18.8-32.3 18.92-28.98L18.92-28.98Q18.99-27.83 18.97-26.14 18.95-24.44 18.87-22.63L18.87-22.63 15.55-22.63Q15.72-24.37 15.72-26.1 15.72-27.83 15.6-29.54L15.6-29.54Q15.5-30.93 14.32-31.59 13.13-32.25 10.47-32.25L10.47-32.25Q7.71-32.25 6.53-31.59 5.35-30.93 5.22-29.54L5.22-29.54Q5.1-27.98 5.11-26.37 5.13-24.76 5.22-23.17L5.22-23.17Q5.32-21.39 5.99-20.45 6.67-19.51 9.18-19.21L9.18-19.21 12.6-18.68Q15.36-18.26 16.75-17.33 18.14-16.41 18.64-14.98 19.14-13.55 19.21-11.57L19.21-11.57Q19.34-9.77 19.31-8.64 19.29-7.52 19.17-5.93L19.17-5.93Q18.99-2.59 17-1.14 15.01 0.32 10.62 0.32ZM27.56-34.86L27.56 0 24.17 0 24.17-34.86 27.56-34.86ZM41.47 0.32L41.47 0.32Q36.88 0.32 34.83-1.14 32.78-2.59 32.66-5.93L32.66-5.93Q32.54-7.79 32.58-9.3 32.61-10.82 32.73-12.7L32.73-12.7 36.03-12.7Q35.88-10.82 35.9-8.96 35.91-7.1 36.03-5.37L36.03-5.37Q36.15-3.96 37.37-3.28 38.59-2.61 41.4-2.61L41.4-2.61Q44.16-2.61 45.32-3.28 46.48-3.96 46.63-5.37L46.63-5.37Q46.75-7.1 46.74-8.39 46.72-9.67 46.63-11.57L46.63-11.57Q46.53-13.09 45.83-14.11 45.14-15.14 42.74-15.45L42.74-15.45 39.25-16.09Q36.49-16.55 35.11-17.44 33.74-18.33 33.23-19.74 32.73-21.14 32.64-23.17L32.64-23.17Q32.56-24.51 32.59-26.04 32.61-27.56 32.69-29L32.69-29Q32.73-32.32 34.72-33.75 36.71-35.18 41.4-35.18L41.4-35.18Q45.72-35.18 47.69-33.74 49.65-32.3 49.78-28.98L49.78-28.98Q49.85-27.83 49.82-26.14 49.8-24.44 49.73-22.63L49.73-22.63 46.41-22.63Q46.58-24.37 46.58-26.1 46.58-27.83 46.45-29.54L46.45-29.54Q46.36-30.93 45.17-31.59 43.99-32.25 41.33-32.25L41.33-32.25Q38.57-32.25 37.39-31.59 36.2-30.93 36.08-29.54L36.08-29.54Q35.96-27.98 35.97-26.37 35.98-24.76 36.08-23.17L36.08-23.17Q36.18-21.39 36.85-20.45 37.52-19.51 40.03-19.21L40.03-19.21 43.45-18.68Q46.21-18.26 47.6-17.33 48.99-16.41 49.49-14.98 49.99-13.55 50.07-11.57L50.07-11.57Q50.19-9.77 50.17-8.64 50.14-7.52 50.02-5.93L50.02-5.93Q49.85-2.59 47.86-1.14 45.87 0.32 41.47 0.32ZM57.39-16.02L57.39 0 54 0 54-34.86 57.39-34.86 57.39-19.14 68.21-19.14 68.21-34.86 71.62-34.86 71.62 0 68.21 0 68.21-16.02 57.39-16.02ZM80.51-34.86L80.51 0 77.11 0 77.11-34.86 80.51-34.86ZM89.44-13.06L89.44 0 86.05 0 86.05-34.86 94.13-34.86Q98.47-34.86 100.46-33.45 102.45-32.03 102.67-28.76L102.67-28.76Q102.92-26.03 102.89-23.75 102.87-21.48 102.67-19.17L102.67-19.17Q102.55-16.94 101.43-15.61 100.3-14.28 97.91-13.65L97.91-13.65 104.04 0 100.33 0 94.62-13.06 89.44-13.06ZM94.13-31.74L89.44-31.74 89.44-16.19 94.03-16.19Q96.79-16.19 98-16.87 99.21-17.55 99.3-18.99L99.3-18.99Q99.67-23.97 99.3-28.93L99.3-28.93Q99.21-30.37 98.01-31.05 96.81-31.74 94.13-31.74L94.13-31.74Z" fill="#000000" data-fill-palette-color="primary"></path></g></svg></g></svg></g></svg></g></svg></g><g><svg viewBox="0 0 181.67391982705735 181.67391982705735" height="181.67391982705735" width="181.67391982705735"><g><svg></svg></g><g id="icon-0"><svg viewBox="0 0 181.67391982705735 181.67391982705735" height="181.67391982705735" width="181.67391982705735"><g><path d="M0 90.837c0-50.168 40.669-90.837 90.837-90.837 50.168 0 90.837 40.669 90.837 90.837 0 50.168-40.669 90.837-90.837 90.837-50.168 0-90.837-40.669-90.837-90.837zM90.837 171.642c44.627 0 80.805-36.178 80.805-80.805 0-44.627-36.178-80.805-80.805-80.805-44.627 0-80.805 36.178-80.805 80.805 0 44.627 36.178 80.805 80.805 80.805z" data-fill-palette-color="accent" fill="#000000" stroke="transparent"></path></g><g transform="matrix(1,0,0,1,58.14349266059944,40.706253693549684)"><svg viewBox="0 0 65.38693450585846 100.26141243995798" height="100.26141243995798" width="65.38693450585846"><g><svg xmlns="http://www.w3.org/2000/svg" xmlns:xlink="http://www.w3.org/1999/xlink" version="1.1" x="0" y="0" viewBox="4.223053042430175 0.07530656514216236 15.554580415912573 23.85070066666874" enable-background="new 0 0 24 24" xml:space="preserve" height="100.26141243995798" width="65.38693450585846" class="icon-dxe-0" data-fill-palette-color="accent" id="dxe-0"><g fill="#64ffda" data-fill-palette-color="accent"><g fill="#64ffda" data-fill-palette-color="accent"><g fill="#64ffda" data-fill-palette-color="accent"><path d="M16.882 22.867H7.121A0.5 0.5 0 0 1 7.121 21.867H16.882A0.5 0.5 0 0 1 16.882 22.867" fill="#000000" data-fill-palette-color="accent"></path><path d="M15.79 19.946H8.212A0.5 0.5 0 0 1 8.212 18.946H15.79A0.5 0.5 0 0 1 15.79 19.946" fill="#000000" data-fill-palette-color="accent"></path><path d="M14.603 17.025H9.401A0.5 0.5 0 0 1 9.401 16.025H14.603A0.5 0.5 0 0 1 14.603 17.025" fill="#000000" data-fill-palette-color="accent"></path></g><g fill="#64ffda" data-fill-palette-color="accent"><path d="M16.882 22.867H7.121A0.5 0.5 0 0 1 7.121 21.867H16.882A0.5 0.5 0 0 1 16.882 22.867" fill="#000000" data-fill-palette-color="accent"></path><path d="M15.79 19.946H8.212A0.5 0.5 0 0 1 8.212 18.946H15.79A0.5 0.5 0 0 1 15.79 19.946" fill="#000000" data-fill-palette-color="accent"></path><path d="M14.603 17.025H9.401A0.5 0.5 0 0 1 9.401 16.025H14.603A0.5 0.5 0 0 1 14.603 17.025" fill="#000000" data-fill-palette-color="accent"></path></g><g fill="#64ffda" data-fill-palette-color="accent"><path d="M16.882 2.134H7.121A0.5 0.5 0 0 1 7.121 1.134H16.882A0.5 0.5 0 0 1 16.882 2.134" fill="#000000" data-fill-palette-color="accent"></path><path d="M15.79 5.054H8.212A0.5 0.5 0 0 1 8.212 4.054H15.79A0.5 0.5 0 0 1 15.79 5.054" fill="#000000" data-fill-palette-color="accent"></path><path d="M14.603 7.976H9.401A0.5 0.5 0 0 1 9.401 6.976H14.603A0.5 0.5 0 0 1 14.603 7.976" fill="#000000" data-fill-palette-color="accent"></path></g><g fill="#64ffda" data-fill-palette-color="accent"><path d="M16.882 2.134H7.121A0.5 0.5 0 0 1 7.121 1.134H16.882A0.5 0.5 0 0 1 16.882 2.134" fill="#000000" data-fill-palette-color="accent"></path><path d="M15.79 5.054H8.212A0.5 0.5 0 0 1 8.212 4.054H15.79A0.5 0.5 0 0 1 15.79 5.054" fill="#000000" data-fill-palette-color="accent"></path><path d="M14.603 7.976H9.401A0.5 0.5 0 0 1 9.401 6.976H14.603A0.5 0.5 0 0 1 14.603 7.976" fill="#000000" data-fill-palette-color="accent"></path></g></g><g fill="#64ffda" data-fill-palette-color="accent"><g fill="#64ffda" data-fill-palette-color="accent"><path d="M4.884 23.926A0.5 0.5 0 0 1 4.391 23.499C3.353 16.49 7.287 13.851 11.768 11.556A0.5 0.5 0 0 1 12.223 12.447C7.921 14.65 4.438 16.991 5.379 23.353A0.498 0.498 0 0 1 4.884 23.926" fill="#000000" data-fill-palette-color="accent"></path><path d="M11.812 12.594A0.5 0.5 0 0 1 11.585 11.649C15.834 9.473 19.57 6.994 18.631 0.648A0.5 0.5 0 0 1 19.052 0.081 0.497 0.497 0 0 1 19.619 0.502C20.655 7.497 16.443 10.284 12.04 12.54A0.5 0.5 0 0 1 11.812 12.594" fill="#000000" data-fill-palette-color="accent"></path></g><path d="M9.744 11.229A0.5 0.5 0 0 1 9.478 11.153C6.636 9.374 3.488 6.555 4.384 0.502A0.498 0.498 0 1 1 5.372 0.648C4.566 6.096 7.264 8.586 10.01 10.305A0.5 0.5 0 0 1 9.744 11.229" fill="#000000" data-fill-palette-color="accent"></path><path d="M19.125 23.926A0.498 0.498 0 0 1 18.63 23.353C19.437 17.906 16.738 15.415 13.992 13.696A0.5 0.5 0 0 1 14.523 12.849C17.367 14.629 20.515 17.449 19.618 23.5A0.5 0.5 0 0 1 19.125 23.926" fill="#000000" data-fill-palette-color="accent"></path></g></g></svg></g></svg></g></svg></g></svg></g></svg></g></svg></g></svg></g><defs></defs></svg><rect width="395.52" height="247.2" fill="none" stroke="none" visibility="hidden"></rect></g></svg></g></svg>